<svg width="24" height="24" viewBox="0 0 24 24" fill="none" xmlns="http://www.w3.org/2000/svg">
<path d="M15.5 8H8.5C8.10218 8 7.72064 8.15804 7.43934 8.43934C7.15804 8.72064 7 9.10218 7 9.5V14.5C7 14.8978 7.15804 15.2794 7.43934 15.5607C7.72064 15.842 8.10218 16 8.5 16H15.5C15.8978 16 16.2794 15.842 16.5607 15.5607C16.842 15.2794 17 14.8978 17 14.5V9.5C17 9.10218 16.842 8.72064 16.5607 8.43934C16.2794 8.15804 15.8978 8 15.5 8ZM15.295 9L12.355 11.94C12.3085 11.9869 12.2532 12.0241 12.1923 12.0494C12.1314 12.0748 12.066 12.0879 12 12.0879C11.934 12.0879 11.8686 12.0748 11.8077 12.0494C11.7468 12.0241 11.6915 11.9869 11.645 11.94L8.705 9H15.295ZM16 14.5C16 14.6326 15.9473 14.7598 15.8536 14.8536C15.7598 14.9473 15.6326 15 15.5 15H8.5C8.36739 15 8.24021 14.9473 8.14645 14.8536C8.05268 14.7598 8 14.6326 8 14.5V9.705L10.94 12.645C11.2213 12.9259 11.6025 13.0837 12 13.0837C12.3975 13.0837 12.7787 12.9259 13.06 12.645L16 9.705V14.5Z" fill="white"/>
</svg>
